<svg xmlns="http://www.w3.org/2000/svg" viewBox="0 0 1360 40" preserveAspectRatio="none" class="pwr-shape-divider__svg"><path fill="#fff" opacity="1.0" d="M1360 0v40H0v-8h3c0-1 0 0 0 0h17l2 1 6-1h1l1-1 3-1 2 1h5l8 2h4l1-1h3l1 1 2-1h15l4 1 2-1c0-2 2-2 3-3h1l1-1h2c1-1 2-1 2 1h1l1-1h1l3 1h11l6 1h12l2-1h6l1-1h6l3-1 5-1h1l1-1 2-1h15l2 1v-1h1l2-2h2v1l1-1h1v1l4-1h2l1-1h1c2 1 4 0 5-1h1v1h2c2 0 3 0 5 2h3l6-1 2-1h1l1-1h2l2-2 1-1 6-2 1-1 2-1h1l3-1 1-1 1-1 1-1 1-1h1l1-1v1l1 2h7l1 1h4v-1h9l1-1h2V8h4v1h9l2-1 4-2h5c2 1 4 0 6-1h6l1-1h10l3 1h2l2 1h1v1h2l3 3h2l4-1 1-1h3l1 1 2-1h8l4 1h1V8h1c2 0 4 0 5 2 0 1 1 2 3 2h4l5-1h1c3 2 5 1 8 0h2l2 1 1 1 4 3 2 1h3c2 1 4 1 5 3h2l2-1 2-1 2 1 2 1h1v-1h1c1 2 2 2 3 2l1-1h11l1 2 1-1h1v-1h1l1-1h1v-1h1l2-1 2 1h8l5-2v1h3l2 1 2-1 3-1h2l1-1h3l1-1h4l1-1 3 1 6-1h1l2-1 3-1h1l2-1h5l4-1h1l1 1c2 1 3 2 5 1h4v1h5l7-3h2a59 59 0 003-1h1V7l3 1h11l2-1 1 1 3-1 1 1 2 1h8l4-1h4l1 1 1 1h2l1-1h5l1 1c2 3 4 3 6 4h9l1 1h3l1 1h3l5 1 1-1 1 1 2 1 1 1h7l5 1v-1h2l3-1h6l1-1h1v-1h1l7-1 1 1h7v-1l2 1h4l5-1h2l2-1 2-1 4-1h3v1h4l9-1 2-1 1-1h1l1-1 8-2 1 1h2l4-1h3l11-3 3 1h5l5 2h1l1 1h6l3 1h4l4 1 1 1 7-1 10-2 9-1h7l2 1h2l4 1h5l1-1v1h1c1-1 1-2 2-1l1 1h2l1 1h1l1 2v1h-1v1l1 1 1-1h1v-1h1l1 1 13-2h1l1 1 3 1h1l1 1h4l1 1h-1v2l2-1h8l2 1h1v1h4l5 1h2l1-1h1v-1l1 1 1 1c2-1 5 0 7 1v2l-1 1 1 1h1c2-2 4-3 7-1h4l3 1c3 0 5 3 6 6h2v1h1l4-1h2l7 1h2l1-1h5c1 1 2 0 3-1 0-2 1-2 2-1h1c2 1 6 2 9 1l1-1h1c1 0 3 0 3 2l1-1c1-2 3-3 6-2h3l4 3 1 1 4 1h1l1 1h2l2 1 3 2h-1l-1 1h6l1-1h7c1-1 3-2 4 0h5v1h2v1l3 1 4-2 2-1 3-1h1v-1l3-2h2l4 1h8l1 1h10c3-2 6-1 8 1l1 1c0 1 1 1 2-1l1-1h1l1-1h1l1-1 1-1 4-2h4l1-1 3-1v-1h1v-1h3v-1c1-1 2 0 2 1h1l2-2h2l7-1h2l5-1 4-2c2-2 4-2 6-2h1l1-2h4l1-1v-1h1c2-2 4-4 7-4l4-1h3l1 1v1-1h8l6 1 6 2 1-1c4-1 8-1 12 1h3l2 1 1-1h4l1 2 2-1 3-1h3v1h1l4-1 1 1h1c4-2 7 0 10 2v1h1c1-1 1-1 2 1h2l1 1 1-1h2l6 1 1 1h1v1l-1 2h2c2 2 6 1 7-1l2-1h1l2-2h5c1-2 3-3 5-1h2l2 1 4 1h3l3 1 3-1 1-1 1 1 1 1v-1l1 1h8v1h6l1-1v1h4l4 1 3 1 2 1h2c4 0 8 0 11-4h2l1-1 7-2 2-1 3-2h4l2-1h10l2-1h2l2 1v-1h14l2-1h1l3-1h3l1 1 2 1h1l3 1v-1l1 1v-1l2-1h1l1-1 2-1h5V0z" fill-rule="evenodd"></path></svg>