<svg xmlns="http://www.w3.org/2000/svg" width="20" height="20" viewBox="0 0 20 20" fill="none">
  <path fill-rule="evenodd" clip-rule="evenodd" d="M11.6654 11.666H13.332C13.792 11.666 14.1654 12.0393 14.1654 12.4993V15.8327C14.1654 16.2927 13.792 16.666 13.332 16.666H11.6654C11.2054 16.666 10.832 16.2927 10.832 15.8327V12.4993C10.832 12.0393 11.2054 11.666 11.6654 11.666Z" stroke="#111827" stroke-width="1.5" stroke-linecap="round" stroke-linejoin="round"/>
  <path d="M17.5013 14.166H14.168" stroke="#111827" stroke-width="1.5" stroke-linecap="round" stroke-linejoin="round"/>
  <path d="M10.8333 14.166H2.5" stroke="#111827" stroke-width="1.5" stroke-linecap="round" stroke-linejoin="round"/>
  <path fill-rule="evenodd" clip-rule="evenodd" d="M8.33203 8.33398H6.66536C6.20536 8.33398 5.83203 7.96065 5.83203 7.50065V4.16732C5.83203 3.70732 6.20536 3.33398 6.66536 3.33398H8.33203C8.79203 3.33398 9.16536 3.70732 9.16536 4.16732V7.50065C9.16536 7.96065 8.79203 8.33398 8.33203 8.33398Z" stroke="#111827" stroke-width="1.5" stroke-linecap="round" stroke-linejoin="round"/>
  <path d="M2.5 5.83398H5.83333" stroke="#111827" stroke-width="1.5" stroke-linecap="round" stroke-linejoin="round"/>
  <path d="M9.16797 5.83398H17.5013" stroke="#111827" stroke-width="1.5" stroke-linecap="round" stroke-linejoin="round"/>
</svg>