<svg xmlns="http://www.w3.org/2000/svg" width="20" height="20" viewBox="0 0 20 20" fill="none">
  <path fill-rule="evenodd" clip-rule="evenodd" d="M10 18C12.1217 18 14.1566 17.1571 15.6569 15.6569C17.1571 14.1566 18 12.1217 18 10C18 7.87827 17.1571 5.84344 15.6569 4.34315C14.1566 2.84285 12.1217 2 10 2C7.87827 2 5.84344 2.84285 4.34315 4.34315C2.84285 5.84344 2 7.87827 2 10C2 12.1217 2.84285 14.1566 4.34315 15.6569C5.84344 17.1571 7.87827 18 10 18ZM9.25 13.25C9.25 13.4489 9.32902 13.6397 9.46967 13.7803C9.61032 13.921 9.80109 14 10 14C10.1989 14 10.3897 13.921 10.5303 13.7803C10.671 13.6397 10.75 13.4489 10.75 13.25V8.66L12.7 10.76C12.8353 10.9059 13.0229 10.992 13.2217 10.9995C13.4205 11.007 13.6141 10.9353 13.76 10.8C13.9059 10.6647 13.992 10.4771 13.9995 10.2783C14.007 10.0795 13.9353 9.88587 13.8 9.74L10.55 6.24C10.4798 6.16427 10.3947 6.10386 10.3001 6.06254C10.2054 6.02123 10.1033 5.9999 10 5.9999C9.89673 5.9999 9.79458 6.02123 9.69994 6.06254C9.6053 6.10386 9.52021 6.16427 9.45 6.24L6.2 9.74C6.13303 9.81223 6.08093 9.89694 6.0467 9.9893C6.01246 10.0817 5.99675 10.1799 6.00047 10.2783C6.00418 10.3767 6.02725 10.4734 6.06835 10.563C6.10944 10.6525 6.16777 10.733 6.24 10.8C6.31223 10.867 6.39694 10.9191 6.4893 10.9533C6.58166 10.9875 6.67985 11.0032 6.77828 10.9995C6.87671 10.9958 6.97345 10.9728 7.06297 10.9317C7.15248 10.8906 7.23303 10.8322 7.3 10.76L9.25 8.66V13.25Z" fill="#D1D5DB"/>
</svg>