<svg xmlns="http://www.w3.org/2000/svg" width="20" height="20" viewBox="0 0 20 20" fill="none">
  <path d="M17.0158 16.5423V8.79977C17.0158 8.59442 16.9342 8.39749 16.789 8.25229C16.6438 8.10709 16.4469 8.02551 16.2415 8.02551H13.1445" stroke="#6B7280" stroke-width="1.5" stroke-linecap="round" stroke-linejoin="round"/>
  <path d="M3.07812 16.5422V4.1542C3.07812 3.94885 3.1597 3.75192 3.3049 3.60672C3.4501 3.46152 3.64703 3.37994 3.85238 3.37994H12.3692C12.5745 3.37994 12.7714 3.46152 12.9166 3.60672C13.0618 3.75192 13.1434 3.94885 13.1434 4.1542V16.5422" stroke="#6B7280" stroke-width="1.5" stroke-linecap="round" stroke-linejoin="round"/>
  <path d="M5.98047 6.6521H10.2389" stroke="#6B7280" stroke-width="1.5" stroke-linecap="round" stroke-linejoin="round"/>
  <path d="M5.98047 9.96106H10.2389" stroke="#6B7280" stroke-width="1.5" stroke-linecap="round" stroke-linejoin="round"/>
  <path d="M5.97989 16.5422H10.2383V13.2089H5.97989V16.5422Z" stroke="#6B7280" stroke-width="1.5" stroke-linecap="round" stroke-linejoin="round"/>
  <path d="M17.7897 16.5422H2.30469" stroke="#6B7280" stroke-width="1.5" stroke-linecap="round" stroke-linejoin="round"/>
</svg>