<svg xmlns="http://www.w3.org/2000/svg" width="20" height="20" viewBox="0 0 20 20" fill="none">
  <path d="M14.7188 5.875C15.6507 5.875 16.4063 5.11948 16.4063 4.1875C16.4063 3.25552 15.6507 2.5 14.7188 2.5C13.7868 2.5 13.0312 3.25552 13.0312 4.1875C13.0312 5.11948 13.7868 5.875 14.7188 5.875Z" stroke="#6B7280" stroke-width="1.5" stroke-linecap="round" stroke-linejoin="round"/>
  <path d="M14.7188 11.6875C15.6507 11.6875 16.4063 10.932 16.4063 10C16.4063 9.06802 15.6507 8.3125 14.7188 8.3125C13.7868 8.3125 13.0312 9.06802 13.0312 10C13.0312 10.932 13.7868 11.6875 14.7188 11.6875Z" stroke="#6B7280" stroke-width="1.5" stroke-linecap="round" stroke-linejoin="round"/>
  <path d="M4.59375 11.6875C5.52573 11.6875 6.28125 10.932 6.28125 10C6.28125 9.06802 5.52573 8.3125 4.59375 8.3125C3.66177 8.3125 2.90625 9.06802 2.90625 10C2.90625 10.932 3.66177 11.6875 4.59375 11.6875Z" stroke="#6B7280" stroke-width="1.5" stroke-linecap="round" stroke-linejoin="round"/>
  <path d="M14.7188 17.5C15.6507 17.5 16.4063 16.7445 16.4063 15.8125C16.4063 14.8805 15.6507 14.125 14.7188 14.125C13.7868 14.125 13.0312 14.8805 13.0312 15.8125C13.0312 16.7445 13.7868 17.5 14.7188 17.5Z" stroke="#6B7280" stroke-width="1.5" stroke-linecap="round" stroke-linejoin="round"/>
  <path d="M13.0313 4.1875H11.1563C10.3275 4.1875 9.65625 4.85875 9.65625 5.6875V14.3125C9.65625 15.1413 10.3275 15.8125 11.1563 15.8125H13.0313" stroke="#6B7280" stroke-width="1.5" stroke-linecap="round" stroke-linejoin="round"/>
  <path d="M13.0313 10H6.28125" stroke="#6B7280" stroke-width="1.5" stroke-linecap="round" stroke-linejoin="round"/>
</svg>