<svg xmlns="http://www.w3.org/2000/svg" width="20" height="20" viewBox="0 0 20 20" fill="none">
  <path d="M6.9987 11.0443C9.29988 11.0443 11.1654 9.17879 11.1654 6.8776C11.1654 4.57642 9.29988 2.71094 6.9987 2.71094C4.69751 2.71094 2.83203 4.57642 2.83203 6.8776C2.83203 9.17879 4.69751 11.0443 6.9987 11.0443Z" stroke="#6B7280" stroke-width="1.5" stroke-linecap="round" stroke-linejoin="round"/>
  <path d="M15.1559 9.78906C15.6901 10.0969 16.1464 10.5236 16.4893 11.0361C16.8323 11.5487 17.0526 12.1332 17.1334 12.7446C17.2141 13.3559 17.1531 13.9776 16.955 14.5616C16.7569 15.1455 16.4271 15.6761 15.991 16.1121C15.555 16.5482 15.0245 16.878 14.4405 17.0761C13.8565 17.2742 13.2348 17.3352 12.6235 17.2545C12.0121 17.1737 11.4276 16.9533 10.9151 16.6104C10.4025 16.2675 9.97584 15.8112 9.66797 15.2769" stroke="#6B7280" stroke-width="1.5" stroke-linecap="round" stroke-linejoin="round"/>
  <path d="M6.16406 5.62793H6.9974V8.12793" stroke="#6B7280" stroke-width="1.5" stroke-linecap="round" stroke-linejoin="round"/>
  <path d="M13.3235 11.3779L13.831 11.844L11.8008 13.7084" stroke="#6B7280" stroke-width="1.5" stroke-linecap="round" stroke-linejoin="round"/>
</svg>