<svg xmlns="http://www.w3.org/2000/svg" width="20" height="20" viewBox="0 0 20 20" fill="none">
  <path d="M10 10.75C10.4142 10.75 10.75 10.4142 10.75 10C10.75 9.58579 10.4142 9.25 10 9.25C9.58579 9.25 9.25 9.58579 9.25 10C9.25 10.4142 9.58579 10.75 10 10.75Z" stroke="#6B7280" stroke-width="1.5" stroke-linecap="round" stroke-linejoin="round"/>
  <path d="M15.832 10.75C16.2462 10.75 16.582 10.4142 16.582 10C16.582 9.58579 16.2462 9.25 15.832 9.25C15.4178 9.25 15.082 9.58579 15.082 10C15.082 10.4142 15.4178 10.75 15.832 10.75Z" stroke="#6B7280" stroke-width="1.5" stroke-linecap="round" stroke-linejoin="round"/>
  <path d="M4.16797 10.75C4.58218 10.75 4.91797 10.4142 4.91797 10C4.91797 9.58579 4.58218 9.25 4.16797 9.25C3.75376 9.25 3.41797 9.58579 3.41797 10C3.41797 10.4142 3.75376 10.75 4.16797 10.75Z" stroke="#6B7280" stroke-width="1.5" stroke-linecap="round" stroke-linejoin="round"/>
</svg>