<svg xmlns="http://www.w3.org/2000/svg" width="20" height="20" viewBox="0 0 20 20" fill="none">
  <path d="M16.0884 8.33203H9.74229C8.96342 8.33203 8.33203 8.96342 8.33203 9.74229V16.0884C8.33203 16.8673 8.96342 17.4987 9.74229 17.4987H16.0884C16.8673 17.4987 17.4987 16.8673 17.4987 16.0884V9.74229C17.4987 8.96342 16.8673 8.33203 16.0884 8.33203Z" stroke="#6B7280" stroke-width="1.5" stroke-linecap="round" stroke-linejoin="round"/>
  <path d="M4.61538 11.6667H3.91026C3.53623 11.6667 3.17753 11.5181 2.91305 11.2536C2.64858 10.9891 2.5 10.6304 2.5 10.2564V3.91026C2.5 3.53623 2.64858 3.17753 2.91305 2.91305C3.17753 2.64858 3.53623 2.5 3.91026 2.5H10.2564C10.6304 2.5 10.9891 2.64858 11.2536 2.91305C11.5181 3.17753 11.6667 3.53623 11.6667 3.91026V4.61538" stroke="#6B7280" stroke-width="1.5" stroke-linecap="round" stroke-linejoin="round"/>
</svg>