<svg xmlns="http://www.w3.org/2000/svg" width="20" height="20" viewBox="0 0 20 20" fill="none">
  <path d="M12.6517 12.6517C12.3034 12.9999 11.89 13.2761 11.4351 13.4646C10.9801 13.653 10.4925 13.75 10 13.75C9.50754 13.75 9.0199 13.653 8.56493 13.4646C8.10995 13.2761 7.69655 12.9999 7.34833 12.6517M17.5 10C17.5 10.9849 17.306 11.9602 16.9291 12.8701C16.5522 13.7801 15.9997 14.6069 15.3033 15.3033C14.6069 15.9997 13.7801 16.5522 12.8701 16.9291C11.9602 17.306 10.9849 17.5 10 17.5C9.01509 17.5 8.03982 17.306 7.12987 16.9291C6.21993 16.5522 5.39314 15.9997 4.6967 15.3033C4.00026 14.6069 3.44781 13.7801 3.0709 12.8701C2.69399 11.9602 2.5 10.9849 2.5 10C2.5 8.01088 3.29018 6.10322 4.6967 4.6967C6.10322 3.29018 8.01088 2.5 10 2.5C11.9891 2.5 13.8968 3.29018 15.3033 4.6967C16.7098 6.10322 17.5 8.01088 17.5 10ZM8.125 8.125C8.125 8.47 7.985 8.75 7.8125 8.75C7.64 8.75 7.5 8.47 7.5 8.125C7.5 7.78 7.64 7.5 7.8125 7.5C7.985 7.5 8.125 7.78 8.125 8.125ZM7.8125 8.125H7.81917V8.1375H7.8125V8.125ZM12.5 8.125C12.5 8.47 12.36 8.75 12.1875 8.75C12.015 8.75 11.875 8.47 11.875 8.125C11.875 7.78 12.015 7.5 12.1875 7.5C12.36 7.5 12.5 7.78 12.5 8.125ZM12.1875 8.125H12.1942V8.1375H12.1875V8.125Z" stroke="#9CA3AF" stroke-width="1.5" stroke-linecap="round" stroke-linejoin="round"/>
</svg>