<svg xmlns="http://www.w3.org/2000/svg" width="20" height="20" viewBox="0 0 20 20" fill="none">
  <path d="M3.02852 6.12695H2.25391" stroke="#6B7280" stroke-width="1.5" stroke-linecap="round" stroke-linejoin="round"/>
  <path d="M3.80314 3.80273H2.25391" stroke="#6B7280" stroke-width="1.5" stroke-linecap="round" stroke-linejoin="round"/>
  <path d="M13.872 16.1973H3.02734" stroke="#6B7280" stroke-width="1.5" stroke-linecap="round" stroke-linejoin="round"/>
  <path d="M14.0861 3.80273L13.3224 6.3489C13.224 6.67656 12.9219 6.9012 12.5803 6.9012H10.1697C9.65067 6.9012 9.27886 6.4008 9.42758 5.90427L10.0581 3.80273" stroke="#6B7280" stroke-width="1.5" stroke-linecap="round" stroke-linejoin="round"/>
  <path d="M6.90234 10.7744H8.55228" stroke="#6B7280" stroke-width="1.5" stroke-linecap="round" stroke-linejoin="round"/>
  <path d="M14.2106 13.0981H6.00892C4.76334 13.0981 3.8702 11.8975 4.22808 10.7046L5.90125 5.12733C6.13751 4.34109 6.861 3.80273 7.68209 3.80273H15.8845C17.1301 3.80273 18.0232 5.00339 17.6654 6.1963L15.9922 11.7735C15.7559 12.5598 15.0317 13.0981 14.2106 13.0981Z" stroke="#6B7280" stroke-width="1.5" stroke-linecap="round" stroke-linejoin="round"/>
</svg>