<svg xmlns="http://www.w3.org/2000/svg" width="20" height="20" viewBox="0 0 20 20" fill="none">
  <path d="M7.5013 10.8332C7.96154 10.8332 8.33464 10.4601 8.33464 9.99984C8.33464 9.5396 7.96154 9.1665 7.5013 9.1665C7.04106 9.1665 6.66797 9.5396 6.66797 9.99984C6.66797 10.4601 7.04106 10.8332 7.5013 10.8332Z" stroke="#9CA3AF" stroke-width="1.66667" stroke-linecap="round" stroke-linejoin="round"/>
  <path d="M7.5013 5.00016C7.96154 5.00016 8.33464 4.62707 8.33464 4.16683C8.33464 3.70659 7.96154 3.3335 7.5013 3.3335C7.04106 3.3335 6.66797 3.70659 6.66797 4.16683C6.66797 4.62707 7.04106 5.00016 7.5013 5.00016Z" stroke="#9CA3AF" stroke-width="1.66667" stroke-linecap="round" stroke-linejoin="round"/>
  <path d="M7.5013 16.6667C7.96154 16.6667 8.33464 16.2936 8.33464 15.8333C8.33464 15.3731 7.96154 15 7.5013 15C7.04106 15 6.66797 15.3731 6.66797 15.8333C6.66797 16.2936 7.04106 16.6667 7.5013 16.6667Z" stroke="#9CA3AF" stroke-width="1.66667" stroke-linecap="round" stroke-linejoin="round"/>
  <path d="M12.5013 10.8332C12.9615 10.8332 13.3346 10.4601 13.3346 9.99984C13.3346 9.5396 12.9615 9.1665 12.5013 9.1665C12.0411 9.1665 11.668 9.5396 11.668 9.99984C11.668 10.4601 12.0411 10.8332 12.5013 10.8332Z" stroke="#9CA3AF" stroke-width="1.66667" stroke-linecap="round" stroke-linejoin="round"/>
  <path d="M12.5013 5.00016C12.9615 5.00016 13.3346 4.62707 13.3346 4.16683C13.3346 3.70659 12.9615 3.3335 12.5013 3.3335C12.0411 3.3335 11.668 3.70659 11.668 4.16683C11.668 4.62707 12.0411 5.00016 12.5013 5.00016Z" stroke="#9CA3AF" stroke-width="1.66667" stroke-linecap="round" stroke-linejoin="round"/>
  <path d="M12.5013 16.6667C12.9615 16.6667 13.3346 16.2936 13.3346 15.8333C13.3346 15.3731 12.9615 15 12.5013 15C12.0411 15 11.668 15.3731 11.668 15.8333C11.668 16.2936 12.0411 16.6667 12.5013 16.6667Z" stroke="#9CA3AF" stroke-width="1.66667" stroke-linecap="round" stroke-linejoin="round"/>
</svg>