<svg xmlns="http://www.w3.org/2000/svg" width="20" height="20" viewBox="0 0 20 20" fill="none">
  <path d="M10 17.5C14.1421 17.5 17.5 14.1421 17.5 10C17.5 5.85786 14.1421 2.5 10 2.5C5.85786 2.5 2.5 5.85786 2.5 10C2.5 14.1421 5.85786 17.5 10 17.5Z" stroke="#9CA3AF" stroke-width="1.5" stroke-linecap="round" stroke-linejoin="round"/>
  <path d="M7.57031 7.53008C7.76623 6.97313 8.15294 6.5035 8.66194 6.20435C9.17094 5.90521 9.76939 5.79586 10.3513 5.89567C10.9332 5.99548 11.461 6.29801 11.8412 6.74968C12.2214 7.20135 12.4295 7.77301 12.4286 8.36341C12.4286 10.0301 9.92865 10.8634 9.92865 10.8634" stroke="#9CA3AF" stroke-width="1.5" stroke-linecap="round" stroke-linejoin="round"/>
  <path d="M9.99609 13.6927H10.0048" stroke="#9CA3AF" stroke-width="2" stroke-linecap="round" stroke-linejoin="round"/>
</svg>