<svg xmlns="http://www.w3.org/2000/svg" width="20" height="20" viewBox="0 0 20 20" fill="none">
  <path d="M6.97333 3.50945L3.64 4.62029C2.95917 4.84695 2.5 5.48445 2.5 6.20195V15.3186C2.5 15.9378 3.15167 16.3411 3.70583 16.0636L6.75417 14.5395C7.22333 14.3045 7.77583 14.3045 8.245 14.5395L11.7542 16.2944C12.2233 16.5294 12.7758 16.5294 13.245 16.2944L16.5783 14.6278C17.1433 14.3453 17.5 13.7678 17.5 13.137V4.48945C17.5 3.92029 16.9425 3.51862 16.4033 3.69862L13.0275 4.82362C12.685 4.93779 12.3158 4.93779 11.9733 4.82362L8.02667 3.50945C7.685 3.39529 7.315 3.39529 6.97333 3.50945V3.50945Z" stroke="#6B7280" stroke-width="1.5" stroke-linecap="round" stroke-linejoin="round"/>
  <path d="M12.5 7.94238V12.8924" stroke="#6B7280" stroke-width="1.5" stroke-linecap="round" stroke-linejoin="round"/>
  <path d="M7.5 6.27539V11.2254" stroke="#6B7280" stroke-width="1.5" stroke-linecap="round" stroke-linejoin="round"/>
</svg>