<svg xmlns="http://www.w3.org/2000/svg" width="20" height="20" viewBox="0 0 20 20" fill="none">
  <path d="M17.0846 9.532L10.387 16.2203C9.56644 17.0397 8.45359 17.5 7.2932 17.5C6.13282 17.5 5.01996 17.0397 4.19945 16.2203C3.37893 15.4009 2.91797 14.2896 2.91797 13.1309C2.91797 11.9721 3.37893 10.8608 4.19945 10.0414L10.8971 3.35312C11.4441 2.80688 12.186 2.5 12.9596 2.5C13.7332 2.5 14.4751 2.80688 15.0221 3.35312C15.5691 3.89937 15.8764 4.64024 15.8764 5.41275C15.8764 6.18526 15.5691 6.92613 15.0221 7.47237L8.31717 14.1607C8.04366 14.4338 7.67271 14.5873 7.28591 14.5873C6.89912 14.5873 6.52817 14.4338 6.25466 14.1607C5.98116 13.8876 5.8275 13.5171 5.8275 13.1309C5.8275 12.7446 5.98116 12.3742 6.25466 12.1011L12.4422 5.92947" stroke="#9CA3AF" stroke-width="1.5" stroke-linecap="round" stroke-linejoin="round"/>
</svg>