<svg xmlns="http://www.w3.org/2000/svg" width="20" height="20" viewBox="0 0 20 20" fill="none">
  <path d="M16.9134 14.3135H3.08984" stroke="#6B7280" stroke-width="1.5" stroke-linecap="round" stroke-linejoin="round"/>
  <path d="M17.5 16.6663L14.4823 4.59545C14.3921 4.23486 14.184 3.91474 13.8911 3.686C13.5981 3.45726 13.2371 3.33301 12.8654 3.33301H7.13463C6.76293 3.33301 6.40191 3.45726 6.10894 3.686C5.81597 3.91474 5.60787 4.23486 5.51773 4.59545L2.5 16.6663" stroke="#6B7280" stroke-width="1.5" stroke-linecap="round" stroke-linejoin="round"/>
  <path d="M7.13281 3.33301H12.5639C12.7538 3.33301 12.9413 3.3763 13.112 3.4596C13.2827 3.5429 13.4322 3.66402 13.5491 3.81374C13.666 3.96347 13.7473 4.13787 13.7867 4.3237C13.8261 4.50952 13.8226 4.70189 13.7766 4.88617L10.8315 16.6663" stroke="#6B7280" stroke-width="1.5" stroke-linecap="round" stroke-linejoin="round"/>
  <path d="M8.33203 7.5H9.9987" stroke="#6B7280" stroke-width="1.5" stroke-linecap="round" stroke-linejoin="round"/>
  <path d="M6.66797 10H10.0013" stroke="#6B7280" stroke-width="1.5" stroke-linecap="round" stroke-linejoin="round"/>
</svg>