<svg xmlns="http://www.w3.org/2000/svg" width="20" height="20" viewBox="0 0 20 20" fill="none">
  <path d="M16.0903 13.1867C16.6848 12.7753 17.1331 12.1857 17.3706 11.5029C17.6081 10.8201 17.6225 10.0795 17.4117 9.38803C17.2009 8.69655 16.7758 8.08995 16.1977 7.65582C15.6197 7.22168 14.9187 6.98247 14.1958 6.97273H12.8318C12.6027 6.19999 12.2006 5.4896 11.6559 4.89553C11.1112 4.30145 10.4383 3.83931 9.68832 3.54418C8.93832 3.24906 8.13093 3.12873 7.32746 3.19232C6.52399 3.25591 5.74558 3.50175 5.05134 3.91118C4.35709 4.3206 3.76527 4.88284 3.32082 5.5552C2.87638 6.22756 2.59098 6.99236 2.48632 7.79152C2.38166 8.59067 2.46048 9.40317 2.7168 10.1673C2.97311 10.9314 3.40019 11.6271 3.96558 12.2015" stroke="#111827" stroke-width="1.5" stroke-linecap="round" stroke-linejoin="round"/>
  <path d="M10.0273 10.0039V16.8241" stroke="#111827" stroke-width="1.5" stroke-linecap="round" stroke-linejoin="round"/>
  <path d="M13.0585 13.0351L10.0273 10.0039L6.99609 13.0351" stroke="#111827" stroke-width="1.5" stroke-linecap="round" stroke-linejoin="round"/>
</svg>  