<svg xmlns="http://www.w3.org/2000/svg" width="20" height="20" viewBox="0 0 20 20" fill="none">
  <path d="M2.5 10.0001H5.97667C7.27833 10.0001 8.33333 8.94507 8.33333 7.64341C8.33333 7.01841 8.085 6.41841 7.64333 5.97674L5.5975 3.93091" stroke="#6B7280" stroke-width="1.5" stroke-linecap="round" stroke-linejoin="round"/>
  <path d="M15.2431 15.365L13.7622 13.1442C13.4939 12.7417 13.0431 12.5 12.5597 12.5C12.0122 12.5 11.5122 12.1908 11.2672 11.7008L11.1564 11.4792C10.9531 11.0725 10.9531 10.5933 11.1564 10.1867L12.1006 8.29833C12.3447 7.80917 12.8456 7.5 13.3931 7.5H17.0664" stroke="#6B7280" stroke-width="1.5" stroke-linecap="round" stroke-linejoin="round"/>
  <path d="M10 2.5C14.1517 2.5 17.5 5.84833 17.5 10C17.5 14.1517 14.1517 17.5 10 17.5" stroke="#6B7280" stroke-width="1.5" stroke-linecap="round" stroke-linejoin="round"/>
  <path d="M10 17.5C5.84833 17.5 2.5 14.1517 2.5 10C2.5 5.84833 5.84833 2.5 10 2.5" stroke="#6B7280" stroke-width="1.5" stroke-linecap="round" stroke-linejoin="round"/>
</svg>