<?xml version="1.0" encoding="UTF-8"?>
<svg width="335" height="120" color-interpolation-filters="sRGB" data-v-0dd9719b="" preserveAspectRatio="xMidYMid" version="1.0" viewBox="0 0 335 120" xmlns="http://www.w3.org/2000/svg">
 <g transform="matrix(1.7717 0 0 1.7717 -137.82 -120.91)" fill="#333">
  <g transform="translate(2.5767 -23.068)">
   <rect x="86.633" y="150.07" width="65.635" height="1"/>
   <rect x="187.74" y="150.07" width="65.635" height="1"/>
   <g transform="translate(155.27 146.57)">
    <path transform="translate(-1.08,7.872)" d="m1.08-7.87v7.87h2.51c0.44 0 0.84-0.05 1.21-0.14 0.37-0.1 0.68-0.24 0.95-0.44 0.26-0.19 0.47-0.43 0.61-0.72 0.14-0.28 0.22-0.62 0.22-1 0-0.55-0.16-0.98-0.48-1.29s-0.77-0.51-1.35-0.6v-0.05c0.47-0.12 0.81-0.33 1.03-0.65 0.23-0.32 0.34-0.67 0.34-1.06 0-0.35-0.07-0.64-0.2-0.88-0.13-0.25-0.31-0.45-0.55-0.6s-0.52-0.26-0.85-0.33c-0.33-0.08-0.7-0.11-1.1-0.11zm2.16 3.36h-1.16v-2.57h1.21c0.61 0 1.08 0.09 1.38 0.28 0.31 0.19 0.47 0.5 0.47 0.93 0 0.44-0.15 0.78-0.44 1.01s-0.78 0.35-1.46 0.35zm0.2 3.72h-1.36v-2.98h1.36c0.7 0 1.23 0.12 1.6 0.34 0.37 0.23 0.55 0.59 0.55 1.08 0 0.53-0.19 0.93-0.56 1.18-0.38 0.25-0.91 0.38-1.59 0.38zm4.66-7.08v4.62c0 0.63 0.07 1.16 0.22 1.59 0.14 0.44 0.34 0.79 0.59 1.05 0.25 0.27 0.55 0.46 0.9 0.58s0.72 0.17 1.12 0.17 0.77-0.05 1.12-0.17c0.34-0.12 0.64-0.31 0.89-0.58 0.25-0.26 0.45-0.61 0.6-1.05 0.14-0.43 0.21-0.96 0.21-1.59v-4.62h-0.96v4.64c0 0.47-0.05 0.87-0.14 1.19-0.1 0.32-0.23 0.58-0.4 0.77s-0.36 0.33-0.59 0.41c-0.22 0.09-0.46 0.13-0.73 0.13-0.25 0-0.49-0.04-0.72-0.13-0.22-0.08-0.42-0.22-0.58-0.41s-0.29-0.45-0.39-0.77-0.14-0.72-0.14-1.19v-4.64zm7.78 0v7.87h0.99v-7.87zm3.15 0v7.87h4.44v-0.85h-3.44v-7.02zm5.83 0v7.87h2.02c0.59 0 1.12-0.09 1.57-0.27 0.46-0.18 0.84-0.44 1.15-0.78 0.32-0.34 0.55-0.76 0.71-1.25s0.24-1.05 0.24-1.67c0-1.26-0.31-2.22-0.95-2.89-0.63-0.68-1.55-1.01-2.77-1.01zm1.9 7.05h-0.9v-6.24h0.9c0.92 0 1.61 0.27 2.07 0.8 0.46 0.52 0.69 1.29 0.69 2.29s-0.23 1.77-0.69 2.33c-0.46 0.55-1.15 0.82-2.07 0.82z"/>
   </g>
  </g>
  <g transform="translate(84.21 73.201)">
   <g fill="#333" data-gra="path-name">
    <path transform="translate(-2.7231 45.15)" d="m28.54-19.77q3.48 0.82 5.42 3.35 1.93 2.53 1.93 5.85 0 5.07-3.35 7.82t-9.61 2.75h-20.21v-38.56h19.66q5.89 0 9.26 2.56 3.38 2.56 3.38 7.46 0 3.38-1.77 5.69-1.77 2.32-4.71 3.08zm-13.73-9.2v5.44h4.69q1.63 0 2.42-0.65 0.79-0.66 0.79-2.02 0-1.41-0.79-2.09t-2.42-0.68zm5.5 19.28q1.64 0 2.43-0.63t0.79-2.04q0-2.78-3.22-2.78h-5.5v5.45z"/>
   </g>
  </g>
  <g transform="translate(121.21 73.201)">
   <g fill="#333" data-gra="path-name">
    <path transform="translate(-1.8517 45.15)" d="m8.82-33.17q-3.16 0-5.06-1.69-1.91-1.68-1.91-4.24 0-2.62 1.91-4.33 1.9-1.72 5.06-1.72 3.11 0 5.01 1.72 1.91 1.71 1.91 4.33 0 2.56-1.91 4.24-1.9 1.69-5.01 1.69zm-6.1 2.45h12.09v30.72h-12.09z"/>
   </g>
  </g>
  <g transform="translate(138.21 73.201)">
   <g fill="#333" data-gra="path-name">
    <path transform="translate(-2.7231 45.15)" d="m2.72-40.3h12.09v40.3h-12.09z"/>
   </g>
  </g>
  <g transform="translate(154.21 73.201)">
   <g fill="#333" data-gra="path-name">
    <path transform="translate(-2.7231 45.15)" d="m2.72-40.3h12.09v40.3h-12.09z"/>
   </g>
  </g>
  <g transform="translate(170.21 73.201)">
   <g fill="#333" data-gra="path-name">
    <path transform="translate(-1.8517 45.15)" d="m8.82-33.17q-3.16 0-5.06-1.69-1.91-1.68-1.91-4.24 0-2.62 1.91-4.33 1.9-1.72 5.06-1.72 3.11 0 5.01 1.72 1.91 1.71 1.91 4.33 0 2.56-1.91 4.24-1.9 1.69-5.01 1.69zm-6.1 2.45h12.09v30.72h-12.09z"/>
   </g>
  </g>
  <g transform="translate(228.21 73.201)">
   <g fill="#333" data-gra="path-name">
    <path transform="translate(-2.7231 45.15)" d="m24.24-30.93q5.28 0 8.25 3.54t2.97 9.58v17.81h-12.04v-16.28q0-2.18-1.17-3.46t-3.13-1.28q-2.02 0-3.16 1.28-1.15 1.28-1.15 3.46v16.28h-12.09v-30.72h12.09v4.69q1.42-2.18 3.79-3.54t5.64-1.36z"/>
   </g>
  </g>
  <path d="m205.25 118.32c-0.70149-0.0894-1.4762-0.50142-1.9214-1.0221-0.47641-0.55719-0.80255-1.4037-0.80255-2.0831 0-1.0438 0.62833-2.1523 1.5188-2.6794 1.0339-0.612 2.3157-0.60419 3.2752 0.02 1.7345 1.1283 1.968 3.5209 0.48092 4.9284-0.69711 0.65982-1.6034 0.9569-2.551 0.83623zm-8.7229-2.4154c-1.142-0.22937-2.1162-1.1499-2.4085-2.2756-0.11247-0.43346-0.11247-1.174 0-1.6074 0.35176-1.355 1.6259-2.3369 3.0282-2.3335 1.4599 3e-3 2.7492 1.0611 3.0524 2.5038 0.0465 0.2217 0.0848 0.50671 0.0848 0.63339 0 0.78219-0.351 1.6012-0.94014 2.1938-0.75894 0.76333-1.7984 1.0901-2.8167 0.88559zm16.814 1.6e-4c-1.1435-0.22874-2.1155-1.1472-2.4085-2.2758-0.13229-0.50954-0.11283-1.2974 0.0432-1.7571 0.74354-2.1883 3.3871-2.9022 5.0641-1.3676 0.69827 0.63901 1.0289 1.3979 1.0236 2.3498-5e-3 0.9098-0.32926 1.6451-1.0004 2.2685-0.71969 0.66856-1.7748 0.97173-2.7222 0.78221zm-7.9768-6.0203c-0.0631-0.014-0.2568-0.054-0.4304-0.0887-0.7921-0.15821-1.6837-0.86041-2.0542-1.6179-0.46709-0.95499-0.45738-1.9523 0.0281-2.8815 0.38848-0.74356 1.0972-1.3244 1.9074-1.5631 0.39033-0.11498 1.2448-0.11929 1.6606-8e-3 0.82331 0.21987 1.5758 0.83237 1.954 1.5904 0.28801 0.57733 0.37079 0.98272 0.33425 1.6368-0.0884 1.5801-1.3025 2.8106-2.8899 2.9286-0.21723 0.0163-0.44664 0.018-0.50978 3e-3zm-15.603-0.86072c-1.3312-0.36674-2.3284-1.6608-2.3284-3.0217 0-1.4559 1.075-2.7777 2.5066-3.0821 0.49186-0.10452 0.74702-0.10425 1.2503 1e-3 1.0752 0.2265 1.9703 1.0013 2.328 2.015 0.15277 0.43295 0.20769 1.26 0.11377 1.7137-0.22863 1.1048-1.1697 2.0846-2.2813 2.3751-0.39914 0.10434-1.207 0.10342-1.589-2e-3zm29.634 5e-3c-0.91755-0.25916-1.6572-0.88149-2.037-1.7139-0.77474-1.6979 0.053-3.6705 1.7972-4.282 1.709-0.5992 3.5902 0.40427 4.057 2.1641 0.11223 0.4232 0.10857 1.224-7e-3 1.6157-0.32069 1.0839-1.1241 1.8904-2.199 2.2073-0.373 0.11002-1.2356 0.11464-1.6108 8e-3zm-22.429-4.0366c-0.54512-0.1863-0.94002-0.44373-1.3183-0.85939-1.3134-1.4431-1.0096-3.6804 0.64659-4.7626 1.2-0.7841 2.8468-0.58665 3.876 0.46473 1.647 1.6824 0.93925 4.4825-1.3116 5.1896-0.54217 0.1703-1.3398 0.1567-1.8927-0.0322zm15.09 0.0557c-1.0881-0.29362-1.9739-1.2586-2.2156-2.4137-0.10574-0.50511-0.10574-0.70404 0-1.2092 0.3122-1.492 1.5686-2.5255 3.07-2.5255 1.0483 0 1.9705 0.48173 2.5474 1.3307 0.36512 0.53735 0.50659 0.96261 0.53916 1.6208 0.0496 1.0045-0.20474 1.6747-0.90038 2.3712-0.66418 0.66503-1.278 0.91784-2.2149 0.9122-0.28405-1e-3 -0.6556-0.0406-0.82566-0.0867zm-7.0507-3.6777c-1.2078-0.27587-2.144-1.2356-2.4047-2.4649-0.33575-1.5835 0.68527-3.2175 2.276-3.6422 0.40751-0.10882 1.1493-0.1087 1.5661 2.2e-4 1.1204 0.29282 2.0513 1.2636 2.2823 2.38 0.0945 0.45704 0.0412 1.2889-0.10977 1.7088-0.25042 0.69685-0.84759 1.3924-1.4695 1.7116-0.6597 0.33858-1.4835 0.45655-2.1404 0.30652zm-17.326-1.0033c-0.6383-0.23778-1.1089-0.70152-1.3422-1.3227-0.10094-0.26851-0.11815-0.41614-0.0989-0.84369 0.0298-0.66234 0.20945-1.0543 0.68563-1.4967 0.44151-0.41011 0.84381-0.56702 1.4539-0.56702 0.61437 0 1.0118 0.15636 1.4632 0.57567 0.39112 0.36332 0.60283 0.75442 0.68085 1.2577 0.14565 0.93925-0.35148 1.8765-1.2219 2.3038-0.44948 0.22066-1.1672 0.26182-1.6206 0.093zm33.84 0.0203c-0.56822-0.15682-1.0321-0.42575-1.4397-0.83473-1.7278-1.7335-0.87641-4.7025 1.5103-5.2671 1.0483-0.24798 2.0984 0.061 2.8816 0.84748 0.57334 0.57578 0.85745 1.1702 0.92909 1.9437 0.1285 1.3872-0.72152 2.7089-2.0737 3.2244-0.44833 0.17089-1.3458 0.21371-1.8077 0.0863zm-9.2824-4.3758c-0.76201-0.1661-1.507-0.67732-1.9394-1.3309-0.6724-1.0164-0.68712-2.3925-0.0362-3.392 0.59509-0.91397 1.4174-1.3956 2.4778-1.4513 0.94903-0.0498 1.6955 0.23525 2.3588 0.90073 0.61555 0.61761 0.91226 1.3306 0.91226 2.1923 0 0.89887-0.28633 1.6131-0.88951 2.2187-0.76529 0.7684-1.8403 1.0899-2.8837 0.86251zm-14.919-0.9717c-1.0382-0.33972-1.7009-1.4044-1.5125-2.4299 0.17575-0.95687 0.86618-1.6452 1.8192-1.8136 0.90321-0.15963 1.8493 0.34116 2.272 1.2026 0.1748 0.35625 0.18827 0.42497 0.18826 0.9607-1e-5 0.52136-0.0163 0.61022-0.16819 0.92123-0.2155 0.44113-0.60366 0.82906-1.0382 1.0376-0.27752 0.13319-0.43626 0.16807-0.83087 0.1826-0.30565 0.0106-0.57809-0.0118-0.72961-0.0613zm22.027-2.8898c-1.1118-0.3-1.9811-1.2653-2.2254-2.4713-0.31105-1.5351 0.66207-3.097 2.2322-3.5826 0.41377-0.12798 1.2374-0.12455 1.6773 7e-3 0.74276 0.2221 1.3084 0.62688 1.7177 1.2293 0.38265 0.56316 0.50917 0.95896 0.53869 1.6852 0.022 0.53855 8e-3 0.65502-0.12469 1.0519-0.18256 0.54561-0.35966 0.8406-0.7441 1.2394-0.60523 0.6278-1.3452 0.9348-2.2377 0.92836-0.28864-2e-3 -0.66392-0.0413-0.83397-0.0873zm-29.519-1.4078c-0.53545-0.13493-1.0122-0.52286-1.2581-1.0236-0.10881-0.22172-0.13266-0.36326-0.13266-0.78843 0-0.60803 0.10988-0.8921 0.49633-1.2838 0.90111-0.91318 2.3912-0.66398 2.9584 0.49476 0.21637 0.44212 0.22648 1.0956 0.024 1.5498-0.15722 0.35264-0.59094 0.78272-0.95014 0.94214-0.29961 0.13297-0.83804 0.1846-1.1378 0.10906zm14.954-0.10166c-0.60966-0.2186-1.007-0.61379-1.2059-1.1996-0.12906-0.38003-0.0782-1.0027 0.11223-1.3745 0.46201-0.90195 1.5574-1.2748 2.442-0.83126 1.1484 0.57581 1.3932 2.0603 0.48926 2.9673-0.45906 0.46059-1.2494 0.64896-1.8377 0.43801zm8.4179-4.8244c-1.0968-0.29033-1.9869-1.1719-2.265-2.2432-0.11248-0.43346-0.11248-1.174 0-1.6074 0.34632-1.3341 1.6282-2.3344 2.9916-2.3344 1.0435 0 2.1069 0.57582 2.6598 1.4403 0.64352 1.0062 0.64825 2.3836 0.0119 3.37-0.28102 0.43542-0.79355 0.90583-1.2249 1.1243-0.64887 0.32865-1.5049 0.4273-2.173 0.25044zm-16.871-1.7906c-1.0436-0.53762-1.0436-1.9752 0-2.5128 0.4344-0.22377 0.94224-0.20475 1.3551 0.0508 0.3152 0.19506 0.61588 0.63656 0.67266 0.98762 0.0851 0.52599-0.2012 1.1318-0.67266 1.4237-0.41282 0.2555-0.92066 0.27453-1.3551 0.0508zm8.4147-2.3484c-0.43958-0.15722-0.77883-0.63446-0.78135-1.0991-1e-3 -0.33285 0.23833-0.78323 0.52319-0.98131 0.33402-0.23225 0.83603-0.26013 1.1972-0.0665 0.67879 0.36394 0.8339 1.2311 0.32439 1.8134-0.33099 0.37823-0.79555 0.50087-1.2634 0.33352z" stroke-width=".21726"/>
 </g>
</svg>
