<?xml version="1.0" encoding="UTF-8"?>
<svg width="400" height="400" color-interpolation-filters="sRGB" data-v-0dd9719b="" preserveAspectRatio="xMidYMid" version="1.0" viewBox="0 0 400 400" xmlns="http://www.w3.org/2000/svg">
 <path d="m195.02 369.2c-6.1036-0.7779-12.844-4.3628-16.718-8.8932-4.1452-4.848-6.9829-12.213-6.9829-18.125 0-9.082 5.467-18.727 13.215-23.313 8.9958-5.3249 20.149-5.257 28.497 0.17422 15.092 9.8172 17.123 30.635 4.1844 42.881-6.0655 5.741-13.951 8.3258-22.196 7.2759zm-75.897-21.016c-9.9364-1.9957-18.413-10.005-20.956-19.8-0.97856-3.7715-0.97856-10.215 0-13.986 3.0606-11.79 14.147-20.333 26.348-20.303 12.702 0.0272 23.92 9.2325 26.559 21.785 0.40469 1.929 0.73783 4.4088 0.73783 5.511 0 6.8057-3.054 13.932-8.18 19.088-6.6034 6.6416-15.648 9.4848-24.508 7.7054zm146.3 1e-3c-9.9494-1.9902-18.407-9.9816-20.956-19.801-1.1511-4.4335-0.98174-11.288 0.3761-15.288 6.4694-19.04 29.471-25.252 44.062-11.899 6.0755 5.5599 8.9523 12.163 8.9062 20.445-0.0454 7.916-2.8648 14.314-8.7044 19.738-6.2619 5.817-15.442 8.4549-23.685 6.8059zm-69.405-52.382c-0.54901-0.12159-2.2344-0.46985-3.7448-0.77178-6.8919-1.3766-14.65-7.4863-17.873-14.077-4.0641-8.3092-3.9796-16.987 0.24454-25.072 3.3801-6.4696 9.5466-11.523 16.596-13.6 3.3962-1.0004 10.831-1.038 14.449-0.0698 7.1635 1.9131 13.711 7.2423 17.001 13.838 2.506 5.0233 3.2262 8.5505 2.9083 14.242-0.76918 13.748-11.333 24.455-25.145 25.481-1.8901 0.14201-3.8861 0.15652-4.4355 0.0272zm-135.76-7.489c-11.583-3.191-20.259-14.45-20.259-26.291 0-12.668 9.3534-24.168 21.81-26.817 4.2796-0.90941 6.4997-0.90706 10.879 0.01 9.3552 1.9707 17.143 8.7122 20.256 17.532 1.3292 3.767 1.807 10.963 0.98986 14.911-1.9892 9.6127-10.177 18.138-19.849 20.665-3.4729 0.90784-10.502 0.89985-13.826-0.0181zm257.84 0.0453c-7.9835-2.2549-14.419-7.6697-17.724-14.912-6.7409-14.773 0.46113-31.936 15.637-37.257 14.87-5.2136 31.238 3.5175 35.299 18.83 0.97651 3.6822 0.94467 10.65-0.0608 14.058-2.7903 9.4308-9.7806 16.448-19.133 19.205-3.2454 0.95728-10.751 0.99748-14.015 0.0695zm-195.15-35.122c-4.743-1.621-8.179-3.8609-11.47-7.4774-11.428-12.556-8.7844-32.023 5.6259-41.439 10.441-6.8223 24.77-5.1043 33.725 4.0436 14.33 14.638 8.1723 39.002-11.412 45.154-4.7173 1.4818-11.657 1.3634-16.468-0.28038zm131.3 0.48463c-9.4674-2.5548-17.175-10.951-19.278-21.001-0.91999-4.3949-0.91999-6.1257 0-10.521 2.7164-12.982 13.648-21.974 26.712-21.974 9.1211 0 17.145 4.1915 22.165 11.578 3.1769 4.6754 4.4078 8.3756 4.6912 14.102 0.43146 8.74-1.7815 14.571-7.8341 20.631-5.779 5.7863-11.12 7.986-19.272 7.9369-2.4715-0.01-5.7043-0.35343-7.1839-0.7544zm-61.347-31.999c-10.509-2.4003-18.655-10.751-20.923-21.447-2.9214-13.778 5.9624-27.995 19.803-31.69 3.5457-0.94685 9.9999-0.94581 13.626 2e-3 9.7484 2.5478 17.848 10.994 19.858 20.708 0.82221 3.9767 0.35841 11.215-0.95512 14.868-2.1788 6.0632-7.3747 12.115-12.786 14.892-5.74 2.9459-12.908 3.9724-18.623 2.667zm-150.75-8.7293c-5.5537-2.0689-9.6484-6.1038-11.678-11.509-0.8783-2.3363-1.028-3.6208-0.86051-7.3408 0.25906-5.7629 1.8224-9.1733 5.9656-13.023 3.8415-3.5683 7.3419-4.9336 12.65-4.9336 5.3455 0 8.8035 1.3605 12.731 5.0088 3.4031 3.1612 5.2451 6.5641 5.924 10.943 1.2672 8.1723-3.0582 16.327-10.632 20.045-3.9109 1.9199-10.156 2.278-14.101 0.80916zm294.44 0.17649c-4.944-1.3645-8.9802-3.7044-12.527-7.2629-15.033-15.083-7.6255-40.916 13.141-45.828 9.1211-2.1576 18.258 0.53072 25.072 7.3738 4.9885 5.0098 7.4605 10.182 8.0839 16.912 1.118 12.07-6.2778 23.57-18.043 28.055-3.9008 1.4869-11.71 1.8594-15.728 0.75086zm-80.765-38.073c-6.6301-1.4452-13.112-5.8933-16.874-11.58-5.8505-8.8435-5.9785-20.817-0.31486-29.513 5.1778-7.9523 12.333-12.143 21.559-12.628 8.2574-0.43327 14.752 2.0469 20.524 7.8371 5.3558 5.3737 7.9374 11.577 7.9374 19.075 0 7.8209-2.4913 14.035-7.7395 19.305-6.6587 6.6857-16.012 9.4831-25.091 7.5046zm-129.81-8.4546c-9.0332-2.9558-14.799-12.219-13.16-21.142 1.5292-8.3256 7.5365-14.315 15.829-15.78 7.8587-1.3889 16.09 2.9684 19.768 10.464 1.5209 3.0997 1.6381 3.6976 1.638 8.3589-1e-4 4.5363-0.14201 5.3094-1.4634 8.0155-1.875 3.8382-5.2524 7.2135-9.0332 9.028-2.4147 1.1589-3.7958 1.4623-7.2293 1.5888-2.6594 0.0921-5.0299-0.10257-6.3482-0.53335zm191.65-25.144c-9.6736-2.6102-17.237-11.009-19.363-21.502-2.7064-13.357 5.7606-26.947 19.422-31.172 3.6001-1.1135 10.766-1.0837 14.594 0.06082 6.4627 1.9324 11.384 5.4544 14.945 10.696 3.3294 4.9 4.4302 8.3438 4.6871 14.663 0.19146 4.6858 0.0695 5.6992-1.0849 9.1524-1.5884 4.7472-3.1294 7.3139-6.4743 10.784-5.266 5.4624-11.704 8.1336-19.47 8.0775-2.5114-0.0181-5.7767-0.35931-7.2563-0.75956zm-256.84-12.249c-4.6589-1.174-8.807-4.5493-10.947-8.9062-0.94671-1.9291-1.1542-3.1607-1.1542-6.86 0-5.2904 0.95601-7.762 4.3185-11.17 7.8404-7.9455 20.805-5.7772 25.741 4.3048 1.8826 3.8468 1.9706 9.5326 0.2087 13.485-1.368 3.0682-5.1417 6.8103-8.267 8.1974-2.6069 1.157-7.2917 1.6062-9.8999 0.94894zm130.11-0.88451c-5.3046-1.902-8.7618-5.3405-10.492-10.438-1.1229-3.3066-0.68039-8.7243 0.97652-11.959 4.0199-7.8477 13.551-11.092 21.247-7.2327 9.9921 5.01 12.122 17.926 4.257 25.818-3.9942 4.0075-10.871 5.6465-15.99 3.811zm73.243-41.976c-9.5431-2.5261-17.288-10.197-19.707-19.518-0.97865-3.7715-0.97865-10.215 0-13.986 3.0133-11.608 14.167-20.311 26.029-20.311 9.0793 0 18.332 5.0101 23.142 12.532 5.5992 8.7548 5.6404 20.739 0.10341 29.322-2.4451 3.7885-6.9046 7.8815-10.658 9.7824-5.6457 2.8595-13.094 3.7179-18.907 2.179zm-146.79-15.58c-9.0802-4.6777-9.0802-17.186 0-21.863 3.7796-1.947 8.1983-1.7815 11.791 0.44189 2.7425 1.6972 5.3587 5.5386 5.8527 8.5931 0.74046 4.5765-1.7506 9.8476-5.8527 12.387-3.5919 2.2231-8.0105 2.3886-11.791 0.4419zm73.215-20.433c-3.8247-1.3679-6.7765-5.5204-6.7984-9.5631-0.01-2.8961 2.0737-6.8148 4.5522-8.5382 2.9063-2.0208 7.2742-2.2634 10.417-0.57859 5.9061 3.1666 7.2557 10.712 2.8225 15.778-2.8799 3.2909-6.922 4.358-10.993 2.9019z" fill="#333" stroke-width="1.8903"/>
</svg>
