
<svg xmlns="http://www.w3.org/2000/svg" width="24" height="24" viewBox="0 0 24 24" fill="none">
  <path d="M20.25 4.5H3.75C3.33579 4.5 3 4.83579 3 5.25V18.75C3 19.1642 3.33579 19.5 3.75 19.5H20.25C20.6642 19.5 21 19.1642 21 18.75V5.25C21 4.83579 20.6642 4.5 20.25 4.5Z" stroke="#9CA3AF" stroke-width="1.5" stroke-linecap="round" stroke-linejoin="round"/>
  <path d="M3 15.7519L7.71563 11.0362C7.78541 10.9654 7.8686 10.9091 7.96034 10.8707C8.05208 10.8323 8.15054 10.8125 8.25 10.8125C8.34946 10.8125 8.44792 10.8323 8.53966 10.8707C8.6314 10.9091 8.71459 10.9654 8.78437 11.0362L12.9656 15.2175C13.0354 15.2884 13.1186 15.3446 13.2103 15.383C13.3021 15.4215 13.4005 15.4412 13.5 15.4412C13.5995 15.4412 13.6979 15.4215 13.7897 15.383C13.8814 15.3446 13.9646 15.2884 14.0344 15.2175L15.9656 13.2862C16.0354 13.2154 16.1186 13.1591 16.2103 13.1207C16.3021 13.0823 16.4005 13.0625 16.5 13.0625C16.5995 13.0625 16.6979 13.0823 16.7897 13.1207C16.8814 13.1591 16.9646 13.2154 17.0344 13.2862L21 17.2519" stroke="#9CA3AF" stroke-width="1.5" stroke-linecap="round" stroke-linejoin="round"/>
  <path d="M14.625 10.5C15.2463 10.5 15.75 9.99632 15.75 9.375C15.75 8.75368 15.2463 8.25 14.625 8.25C14.0037 8.25 13.5 8.75368 13.5 9.375C13.5 9.99632 14.0037 10.5 14.625 10.5Z" fill="#9CA3AF"/>
</svg>