<svg xmlns="http://www.w3.org/2000/svg" width="24" height="24" viewBox="0 0 24 24" fill="none">
  <path d="M1.875 20.25H8.625C9.58918 20.25 10.5317 19.9641 11.3334 19.4284C12.1351 18.8927 12.7599 18.1314 13.1289 17.2406C13.4979 16.3498 13.5944 15.3696 13.4063 14.4239C13.2182 13.4783 12.7539 12.6096 12.0721 11.9279C11.3904 11.2461 10.5217 10.7818 9.57607 10.5937C8.63041 10.4056 7.65021 10.5021 6.75942 10.8711C5.86863 11.2401 5.10726 11.8649 4.57159 12.6666C4.03591 13.4683 3.75 14.4108 3.75 15.375C3.75 18.75 1.875 20.25 1.875 20.25Z" stroke="#191C1F" stroke-width="1.5" stroke-linecap="round" stroke-linejoin="round"/>
  <path d="M10.5376 10.8937C12.3376 8.46562 16.9126 2.90625 21.0938 2.90625C21.0938 7.0875 15.5345 11.6625 13.1063 13.4625" stroke="#191C1F" stroke-width="1.5" stroke-linecap="round" stroke-linejoin="round"/>
  <path d="M12.4688 8.49219C13.739 9.20909 14.7893 10.2594 15.5062 11.5297" stroke="#191C1F" stroke-width="1.5" stroke-linecap="round" stroke-linejoin="round"/>
</svg>