<svg xmlns="http://www.w3.org/2000/svg" width="24" height="24" viewBox="0 0 24 24" fill="none">
  <path d="M15.0004 7.50107L7.19103 15.4417C6.93249 15.727 6.79358 16.1009 6.80306 16.4858C6.81254 16.8707 6.96968 17.2373 7.24194 17.5095C7.51421 17.7818 7.88076 17.9389 8.26568 17.9484C8.65061 17.9579 9.02445 17.819 9.30978 17.5604L18.6192 8.11982C19.1362 7.54915 19.4141 6.80149 19.3951 6.03163C19.3761 5.26177 19.0619 4.52869 18.5173 3.98415C17.9728 3.43961 17.2397 3.12533 16.4699 3.10638C15.7 3.08742 14.9523 3.36525 14.3817 3.88232L5.07228 13.3229C4.22939 14.1658 3.75586 15.309 3.75586 16.5011C3.75586 17.6931 4.22939 18.8363 5.07228 19.6792C5.91517 20.5221 7.05838 20.9956 8.25041 20.9956C9.44244 20.9956 10.5856 20.5221 11.4285 19.6792L19.1254 12.0011" stroke="#9CA3AF" stroke-width="1.5" stroke-linecap="round" stroke-linejoin="round"/>
</svg>